# xmcd
#
# Track frame offsets: 
#        150
#        45787
#        83252
#        108619
#        118070
#        154836
#
# Disc length: 2467 seconds
#
# Revision: 1
# Processed by: cddbd v1.5.2PL0 Copyright (c) Steve Scherf et al.
# Submitted via: ExactAudioCopy v1.0b1
#
DISCID=3a09a106
DTITLE=Pat Metheny Group - Pat Metheny Group
DYEAR=1900
DGENRE=Jazz
TTITLE0=San Lorenzo
TTITLE1=Phase Dance
TTITLE2=Jaco
TTITLE3=April Wind
TTITLE4=April Joy
TTITLE5=Lone Jack
EXTD=
EXTT0=
EXTT1=
EXTT2=
EXTT3=
EXTT4=
EXTT5=
PLAYORDER=
